<svg xmlns="http://www.w3.org/2000/svg" viewBox="0 0 28 28" class="a8c37x1j ms05siws hwsy1cff b7h9ocf4 em6zcovv" height="28" width="28">
                    <path d="M 17.5 23.75 L 21.75 23.75 C 22.164 23.75 22.5 23.414 22.5 23 L 22.5 14 L 22.531 14 C 22.364 13.917 22.206 13.815 22.061 13.694 L 21.66 13.359 C 21.567 13.283 21.433 13.283 21.34 13.36 L 21.176 13.497 C 20.591 13.983 19.855 14.25 19.095 14.25 L 18.869 14.25 C 18.114 14.25 17.382 13.987 16.8 13.506 L 16.616 13.354 C 16.523 13.278 16.39 13.278 16.298 13.354 L 16.113 13.507 C 15.53 13.987 14.798 14.25 14.044 14.25 L 13.907 14.25 C 13.162 14.25 12.439 13.994 11.861 13.525 L 11.645 13.35 C 11.552 13.275 11.419 13.276 11.328 13.352 L 11.155 13.497 C 10.57 13.984 9.834 14.25 9.074 14.25 L 8.896 14.25 C 8.143 14.25 7.414 13.989 6.832 13.511 L 6.638 13.351 C 6.545 13.275 6.413 13.275 6.32 13.351 L 5.849 13.739 C 5.726 13.84 5.592 13.928 5.452 14 L 5.5 14 L 5.5 23 C 5.5 23.414 5.836 23.75 6.25 23.75 L 10.5 23.75 L 10.5 17.5 C 10.5 16.81 11.06 16.25 11.75 16.25 L 16.25 16.25 C 16.94 16.25 17.5 16.81 17.5 17.5 L 17.5 23.75 Z M 3.673 8.75 L 24.327 8.75 C 24.3 8.66 24.271 8.571 24.238 8.483 L 23.087 5.355 C 22.823 4.688 22.178 4.25 21.461 4.25 L 6.54 4.25 C 5.822 4.25 5.177 4.688 4.919 5.338 L 3.762 8.483 C 3.729 8.571 3.7 8.66 3.673 8.75 Z M 24.5 10.25 L 3.5 10.25 L 3.5 12 C 3.5 12.414 3.836 12.75 4.25 12.75 L 4.421 12.75 C 4.595 12.75 4.763 12.69 4.897 12.58 L 5.368 12.193 C 6.013 11.662 6.945 11.662 7.59 12.193 L 7.784 12.352 C 8.097 12.609 8.49 12.75 8.896 12.75 L 9.074 12.75 C 9.483 12.75 9.88 12.607 10.194 12.345 L 10.368 12.2 C 11.01 11.665 11.941 11.659 12.589 12.185 L 12.805 12.359 C 13.117 12.612 13.506 12.75 13.907 12.75 L 14.044 12.75 C 14.45 12.75 14.844 12.608 15.158 12.35 L 15.343 12.197 C 15.989 11.663 16.924 11.663 17.571 12.197 L 17.755 12.35 C 18.068 12.608 18.462 12.75 18.869 12.75 L 19.095 12.75 C 19.504 12.75 19.901 12.606 20.216 12.344 L 20.38 12.208 C 21.028 11.666 21.972 11.666 22.62 12.207 L 23.022 12.542 C 23.183 12.676 23.387 12.75 23.598 12.75 C 24.097 12.75 24.5 12.347 24.5 11.85 L 24.5 10.25 Z M 24 14.217 L 24 23 C 24 24.243 22.993 25.25 21.75 25.25 L 6.25 25.25 C 5.007 25.25 4 24.243 4 23 L 4 14.236 C 2.875 14.112 2 13.158 2 12 L 2 9.951 C 2 9.272 2.12 8.6 2.354 7.964 L 3.518 4.802 C 4.01 3.563 5.207 2.75 6.54 2.75 L 21.461 2.75 C 22.793 2.75 23.99 3.563 24.488 4.819 L 25.646 7.964 C 25.88 8.6 26 9.272 26 9.951 L 26 11.85 C 26 13.039 25.135 14.026 24 14.217 Z M 16 23.75 L 16 17.75 L 12 17.75 L 12 23.75 L 16 23.75 Z">
                        </path>
                </svg>